<svg width="290" height="290" viewBox="0 0 290 290" fill="none" xmlns="http://www.w3.org/2000/svg">
<rect width="290" height="290" rx="45" fill="url(#paint0_linear_2_150)"/>
<path d="M98.8364 219H203.187V247H81L98.8364 219Z" fill="white"/>
<path d="M190.547 219H239V247H190.547V219Z" fill="white"/>
<path d="M121.859 183H226.344V211H104L121.859 183Z" fill="white"/>
<path d="M190.484 183H239V211H190.484V183Z" fill="white"/>
<path d="M200.398 46C212.194 46.0003 221.742 51.09 229.044 61.2672C236.347 71.4447 240 85.785 240 104.29V175.063H126L142.889 147.558H205.171V104.29C205.171 97.0729 204.422 91.3362 202.924 87.0802C201.426 82.6398 198.244 80.4191 193.376 80.4188C189.444 80.4188 185.605 81.8067 181.86 84.5822C178.115 87.1728 174.65 90.3197 171.467 94.0206C168.284 97.7213 165.382 101.515 162.761 105.401C160.327 109.286 158.267 112.524 156.582 115.114L71.3812 247H31L115.014 115.114C122.129 104.197 128.777 94.4825 134.956 85.9706C141.322 77.2738 147.686 69.9634 154.053 64.0421C160.606 58.121 167.534 53.68 174.836 50.7192C182.326 47.5734 190.848 46 200.398 46Z" fill="white"/>
<defs>
<linearGradient id="paint0_linear_2_150" x1="145" y1="0" x2="145" y2="290" gradientUnits="userSpaceOnUse">
<stop stop-color="#0285FF"/>
<stop offset="1" stop-color="#015099"/>
</linearGradient>
</defs>
</svg>
