<svg width="580" height="169" viewBox="0 0 580 169" fill="none" xmlns="http://www.w3.org/2000/svg">
<rect x="75.5762" y="97.8043" width="42.6782" height="16.0043" fill="#FFFFFF"/>
<path d="M118.17 97.8788V113.396H28.6475L38.7529 97.8788H118.17Z" fill="url(#paint0_linear_2_144)"/>
<path d="M579.205 97.7861V113.509H490.918L501.024 97.7861H579.205Z" fill="url(#paint1_linear_2_144)"/>
<path d="M118.17 77.5924V93.109H41.777L51.8834 77.5924H118.17Z" fill="url(#paint2_linear_2_144)"/>
<path d="M573.278 77.2266L579.205 77.2276V92.9483H504.047L514.154 77.2266H573.278Z" fill="url(#paint3_linear_2_144)"/>
<path d="M579.205 168.934H0V119.46H579.205V168.934Z" fill="url(#paint4_linear_2_144)"/>
<path fill-rule="evenodd" clip-rule="evenodd" d="M488.714 127.365V162.14H495.4V151.608H508.477C514.271 151.608 518.977 156.328 518.977 162.14H525.713C525.713 157.172 523.633 152.75 520.265 149.571C523.533 147.385 525.713 143.709 525.713 139.487C525.713 132.78 520.264 127.365 513.627 127.365H488.714ZM530.263 127.365V162.14H536.949V151.608H555.177C561.814 151.608 567.262 146.143 567.262 139.487C567.262 132.78 561.814 127.365 555.177 127.365H530.263ZM448.712 127.365V162.09H484.721V155.383H455.398V148.08H471.05V141.374H455.398V134.121H484.721V127.365H448.712ZM513.627 134.072C516.549 134.072 518.977 136.506 518.977 139.487C518.976 142.467 516.549 144.852 513.627 144.852H495.4V134.072H513.627ZM555.177 134.072C558.099 134.072 560.526 136.506 560.526 139.487C560.526 142.467 558.099 144.852 555.177 144.852H536.949V134.072H555.177Z" fill="#FFFFFF"/>
<rect x="205.389" width="18.6717" height="18.6717" fill="#FFFFFF"/>
<path d="M95.8472 0C102.521 0.000176595 107.924 2.88202 112.056 8.64445C116.187 14.4071 118.254 22.5268 118.254 33.0043V73.0771H53.752L63.3079 57.5033H98.5476V33.0043C98.5476 28.9181 98.1237 25.6699 97.2761 23.2601C96.4285 20.7459 94.6283 19.4885 91.8741 19.4883C89.6493 19.4883 87.4769 20.2742 85.3581 21.8457C83.2392 23.3125 81.2788 25.0943 79.4778 27.1898C77.6768 29.2852 76.0349 31.4335 74.5517 33.6337C73.1747 35.8335 72.0091 37.6667 71.0557 39.1334L22.8481 113.809H0L47.5357 39.1334C51.5615 32.952 55.3231 27.4514 58.8192 22.6319C62.4213 17.7076 66.0224 13.5684 69.6244 10.2156C73.3323 6.86306 77.2523 4.34848 81.3838 2.67207C85.6217 0.890871 90.4439 0 95.8472 0Z" fill="#FFFFFF"/>
<path d="M526.561 56.9043H578.824V72.9087H516.585L526.561 56.9043Z" fill="#FFFFFF"/>
<path d="M433.481 34.1868C433.481 29.5242 434.332 25.1869 436.034 21.1749C437.736 17.0545 440.076 13.4762 443.054 10.4401C446.032 7.40404 449.489 5.01853 453.424 3.28361C457.466 1.44026 461.773 0.518592 466.347 0.518592H548.83V0.681238C558.19 -1.16211 565.529 0.735453 570.847 6.37394C576.165 11.904 578.824 21.1207 578.824 34.0242V57.4307H559.041L559.041 34.0242C559.041 29.7953 558.615 26.4339 557.764 23.94C557.02 21.446 555.265 20.199 552.499 20.199C550.159 20.199 547.926 20.9581 545.799 22.4761C543.671 23.9942 541.704 25.8375 539.896 28.0062C538.087 30.1748 536.439 32.3977 534.95 34.6748C533.567 36.9518 532.397 38.8494 531.44 40.3674L484.375 114.698H460.763L507.828 40.3674C510.274 36.5723 512.561 33.0483 514.688 29.7953C516.922 26.5423 519.102 23.5062 521.229 20.687H466.347C462.731 20.687 459.646 21.9882 457.093 24.5906C454.541 27.1929 453.264 30.3917 453.264 34.1868V81.0295C453.264 87.3186 452.573 92.6318 451.19 96.9691C449.808 101.198 448.106 104.668 446.085 107.379C444.171 109.981 442.043 111.879 439.703 113.071C437.363 114.156 435.236 114.698 433.322 114.698C429.386 114.698 425.983 114.21 423.111 113.234C420.239 112.258 417.527 110.469 414.974 107.867C412.422 105.264 409.816 101.686 407.157 97.1317C404.604 92.4692 401.626 86.4512 398.223 79.0778L382.268 44.759C381.418 43.024 380.354 40.8554 379.078 38.253C377.908 35.6506 376.631 33.1025 375.249 30.6085C373.972 28.0062 372.643 25.7833 371.26 23.94C369.984 21.9882 368.814 20.9039 367.75 20.687C366.793 20.4701 365.995 21.3376 365.357 23.2894C364.825 25.2411 364.612 28.8194 364.719 34.0242V114.698H344.936V34.0242C344.936 27.7351 345.627 22.4761 347.01 18.2473C348.392 13.91 350.094 10.4401 352.115 7.83777C354.136 5.23539 356.263 3.39204 358.497 2.30772C360.837 1.11497 362.964 0.518592 364.878 0.518592C368.814 0.518592 372.217 1.00654 375.089 1.98243C377.961 2.95832 380.673 4.74745 383.226 7.34982C385.778 9.9522 388.384 13.5847 391.043 18.2473C393.702 22.8014 396.734 28.7652 400.137 36.1386L416.57 71.5959C417.527 73.7646 418.644 76.2043 419.92 78.9151C421.197 81.5175 422.473 84.0114 423.749 86.3969C425.026 88.674 426.249 90.6258 427.419 92.2523C428.695 93.7703 429.812 94.5294 430.769 94.5294C431.726 94.4209 432.418 93.3908 432.843 91.439C433.375 89.3788 433.588 85.909 433.481 81.0295V34.1868Z" fill="#FFFFFF"/>
<path d="M306.002 67.5752H273.995V47.2862H306.002C310.59 47.2862 314.857 48.1589 318.805 49.9042C322.859 51.6494 326.38 54.0492 329.367 57.1035C332.354 60.1577 334.702 63.7573 336.409 67.9024C338.116 71.9384 338.969 76.3016 338.969 80.992C338.969 85.6824 338.116 90.1002 336.409 94.2452C334.702 98.2812 332.354 101.826 329.367 104.881C326.38 107.935 322.859 110.335 318.805 112.08C314.857 113.825 310.59 114.698 306.002 114.698H285.037C277.356 114.698 270.101 113.171 263.272 110.116C256.444 107.062 250.523 102.972 245.509 97.8449C240.494 92.7181 236.493 86.6642 233.506 79.683C230.625 72.7019 229.185 65.2845 229.185 57.4307C229.185 49.4679 230.625 41.9959 233.506 35.0147C236.493 28.0336 240.494 21.9797 245.509 16.8529C250.63 11.617 256.604 7.52653 263.433 4.58137C270.261 1.52712 277.569 1.15579e-07 285.357 1.15579e-07H325.846V20.2889H285.357C280.343 20.2889 275.595 21.2706 271.114 23.2341C266.74 25.1975 262.899 27.87 259.592 31.2515C256.284 34.5239 253.67 38.4508 251.75 43.0321C249.936 47.5044 249.029 52.3039 249.029 57.4307C249.029 62.5575 249.936 67.357 251.75 71.8293C253.67 76.3016 256.284 80.2284 259.592 83.6099C262.899 86.9914 266.74 89.6639 271.114 91.6273C275.595 93.4817 280.343 94.4089 285.357 94.4089H306.002C310.376 94.4089 313.63 93.0454 315.764 90.3184C318.005 87.4823 319.125 84.3735 319.125 80.992C319.125 77.6105 318.005 74.5563 315.764 71.8293C313.63 68.9932 310.376 67.5752 306.002 67.5752Z" fill="#FFFFFF"/>
<path d="M205.319 24.1469H224.412V114.698H205.319V24.1469Z" fill="#FFFFFF"/>
<path d="M158.69 94.4089H200.546V114.698H158.69C154.076 114.698 149.729 113.825 145.651 112.08C141.68 110.225 138.192 107.771 135.187 104.717C132.182 101.663 129.767 98.1176 127.943 94.0816C126.226 89.9366 125.367 85.5188 125.367 80.8284V1.15579e-07H145.329V80.8284C145.329 84.6462 146.617 87.8641 149.193 90.482C151.768 93.0999 154.934 94.4089 158.69 94.4089Z" fill="#FFFFFF"/>
<defs>
<linearGradient id="paint0_linear_2_144" x1="73.4087" y1="97.8788" x2="73.4087" y2="113.396" gradientUnits="userSpaceOnUse">
<stop stop-color="#0285FF"/>
<stop offset="1" stop-color="#015099"/>
</linearGradient>
<linearGradient id="paint1_linear_2_144" x1="535.062" y1="97.7861" x2="535.062" y2="113.509" gradientUnits="userSpaceOnUse">
<stop stop-color="#0285FF"/>
<stop offset="1" stop-color="#015099"/>
</linearGradient>
<linearGradient id="paint2_linear_2_144" x1="79.9733" y1="77.5924" x2="79.9733" y2="93.109" gradientUnits="userSpaceOnUse">
<stop stop-color="#0285FF"/>
<stop offset="1" stop-color="#015099"/>
</linearGradient>
<linearGradient id="paint3_linear_2_144" x1="541.626" y1="77.2266" x2="541.626" y2="92.9485" gradientUnits="userSpaceOnUse">
<stop stop-color="#0285FF"/>
<stop offset="1" stop-color="#015099"/>
</linearGradient>
<linearGradient id="paint4_linear_2_144" x1="289.603" y1="119.46" x2="289.603" y2="168.934" gradientUnits="userSpaceOnUse">
<stop stop-color="#0285FF"/>
<stop offset="1" stop-color="#015099"/>
</linearGradient>
</defs>
</svg>
