<svg width="158.972" height="46.3666" overflow="visible" style="display: block;" viewBox="0 0 158.972 46.3666" fill="none" xmlns="http://www.w3.org/2000/svg">
<g id="Group 148">
<rect id="Rectangle 238" x="20.743" y="26.8439" width="11.7137" height="4.39264" fill="var(--fill-0, white)"/>
<path id="Subtract" d="M32.4331 26.8644V31.1232H7.86275L10.6362 26.8644H32.4331Z" fill="var(--fill-0, #4CBAFD)"/>
<path id="Subtract_2" d="M158.972 26.8392V31.1537H134.74L137.514 26.8392H158.972Z" fill="var(--fill-0, #4CBAFD)"/>
<path id="Subtract_3" d="M32.4331 21.2964V25.5552H11.4663L14.2398 21.2964H32.4331Z" fill="var(--fill-0, #4CBAFD)"/>
<path id="Subtract_4" d="M158.972 21.1958V25.5112H138.344L141.118 21.1958H158.972Z" fill="var(--fill-0, #4CBAFD)"/>
<path id="Subtract_5" d="M158.972 46.3666H0V32.7875H158.972V46.3666Z" fill="var(--fill-0, #4CBAFD)"/>
<g id="ERP">
<path d="M133.039 36.8116H124.991V38.8023H129.287V40.643H124.991V42.6474H133.039V44.4881H123.156V34.9573H133.039V36.8116Z" fill="var(--fill-0, white)"/>
<path d="M142.795 41.0521C143.719 41.9247 144.29 43.1382 144.29 44.5017H142.441C142.441 42.9064 141.15 41.6111 139.559 41.6111H135.97V44.5017H134.135V34.9573H140.973C142.795 34.9573 144.29 36.4435 144.29 38.2842C144.29 39.4432 143.692 40.4522 142.795 41.0521ZM140.973 39.7568C141.775 39.7568 142.441 39.1023 142.441 38.2842C142.441 37.4661 141.775 36.798 140.973 36.798H135.97V39.7568H140.973Z" fill="var(--fill-0, white)"/>
<path d="M152.377 34.9573C154.198 34.9573 155.694 36.4435 155.694 38.2842C155.694 40.1113 154.198 41.6111 152.377 41.6111H147.374V44.5017H145.539V34.9573H152.377ZM152.377 39.7568C153.179 39.7568 153.845 39.1023 153.845 38.2842C153.845 37.4661 153.179 36.798 152.377 36.798H147.374V39.7568H152.377Z" fill="var(--fill-0, white)"/>
</g>
<rect id="Rectangle 241" x="56.3722" y="6.44856e-09" width="5.12475" height="5.12475" fill="var(--fill-0, white)"/>
<path id="Vector" d="M26.3067 6.44856e-09C28.1386 4.84758e-05 29.6214 0.791016 30.7554 2.3726C31.8895 3.95425 32.4567 6.18282 32.4567 9.05854V20.0572H14.7531L17.3758 15.7827H27.0479V9.05854C27.0479 7.93703 26.9316 7.04551 26.6989 6.3841C26.4663 5.69404 25.9722 5.34892 25.2163 5.34888C24.6057 5.34888 24.0094 5.56458 23.4279 5.99589C22.8463 6.39849 22.3082 6.88753 21.8139 7.46267C21.3196 8.03779 20.869 8.62742 20.4619 9.23129C20.0839 9.83506 19.764 10.3382 19.5023 10.7408L6.27101 31.2366H0L13.0469 10.7408C14.1519 9.04418 15.1843 7.53446 16.1438 6.21167C17.1325 4.86013 18.1209 3.72405 19.1095 2.80384C20.1272 1.88367 21.2031 1.19351 22.3371 0.733391C23.5002 0.244513 24.8237 6.44856e-09 26.3067 6.44856e-09Z" fill="var(--fill-0, white)"/>
<path id="Vector_2" d="M144.523 15.6183H158.867V20.0109H141.785L144.523 15.6183Z" fill="var(--fill-0, white)"/>
<g id="Vector_3">
<path d="M118.976 9.3831C118.976 8.10338 119.209 6.91294 119.676 5.81179C120.143 4.68088 120.786 3.69877 121.603 2.86546C122.42 2.03215 123.369 1.37741 124.449 0.901237C125.559 0.395303 126.741 0.142336 127.996 0.142336H150.635V0.186977C153.204 -0.31896 155.218 0.201857 156.678 1.74943C158.137 3.26723 158.867 5.79691 158.867 9.33846V15.7628H153.437L153.437 9.33846C153.437 8.17778 153.321 7.2552 153.087 6.5707C152.883 5.88619 152.401 5.54394 151.642 5.54394C151 5.54394 150.387 5.75227 149.803 6.16892C149.219 6.58558 148.679 7.09151 148.183 7.68673C147.686 8.28195 147.234 8.89205 146.825 9.51703C146.446 10.142 146.125 10.6628 145.862 11.0795L132.944 31.4806H126.464L139.381 11.0795C140.053 10.0378 140.68 9.07061 141.264 8.17779C141.877 7.28496 142.476 6.45165 143.059 5.67787H127.996C127.004 5.67787 126.157 6.035 125.456 6.74926C124.756 7.46352 124.405 8.34147 124.405 9.3831V22.2398C124.405 23.966 124.216 25.4242 123.836 26.6147C123.457 27.7754 122.99 28.7277 122.435 29.4717C121.91 30.186 121.326 30.7068 120.683 31.0342C120.041 31.3318 119.457 31.4806 118.932 31.4806C117.852 31.4806 116.918 31.3467 116.129 31.0788C115.341 30.811 114.597 30.3199 113.896 29.6057C113.196 28.8914 112.48 27.9093 111.751 26.6593C111.05 25.3796 110.233 23.7279 109.298 21.7041L104.919 12.2848C104.686 11.8086 104.394 11.2134 104.044 10.4991C103.723 9.78487 103.372 9.08549 102.993 8.40099C102.642 7.68673 102.278 7.07663 101.898 6.5707C101.548 6.035 101.227 5.73739 100.935 5.67787C100.672 5.61835 100.453 5.85643 100.278 6.39213C100.132 6.92783 100.074 7.90994 100.103 9.33846V31.4806H94.6729V9.33846C94.6729 7.61233 94.8627 6.16892 95.2422 5.00825C95.6217 3.81781 96.0888 2.86546 96.6434 2.1512C97.1981 1.43694 97.7819 0.930999 98.395 0.63339C99.0372 0.30602 99.6211 0.142336 100.147 0.142336C101.227 0.142336 102.161 0.27626 102.949 0.544108C103.737 0.811957 104.482 1.30301 105.182 2.01727C105.883 2.73154 106.598 3.72853 107.328 5.00825C108.058 6.25821 108.89 7.89506 109.824 9.9188L114.334 19.6506C114.597 20.2458 114.903 20.9155 115.254 21.6595C115.604 22.3737 115.954 23.0582 116.305 23.713C116.655 24.338 116.991 24.8737 117.312 25.3201C117.662 25.7367 117.969 25.9451 118.231 25.9451C118.494 25.9153 118.684 25.6326 118.801 25.0969C118.946 24.5314 119.005 23.5791 118.976 22.2398V9.3831Z" fill="var(--fill-0, white)"/>
<path d="M83.987 18.5471H75.2021V12.9784H83.987C85.2461 12.9784 86.4174 13.218 87.5009 13.697C88.6136 14.176 89.58 14.8346 90.3999 15.6729C91.2198 16.5112 91.864 17.4992 92.3326 18.6369C92.8011 19.7446 93.0353 20.9422 93.0353 22.2295C93.0353 23.5169 92.8011 24.7294 92.3326 25.8671C91.864 26.9748 91.2198 27.9478 90.3999 28.7861C89.58 29.6244 88.6136 30.283 87.5009 30.7621C86.4174 31.2411 85.2461 31.4806 83.987 31.4806H78.2329C76.1245 31.4806 74.1333 31.0614 72.2592 30.2232C70.3851 29.3849 68.7599 28.2622 67.3836 26.8551C66.0073 25.4479 64.9092 23.7863 64.0893 21.8703C63.2987 19.9542 62.9034 17.9183 62.9034 15.7628C62.9034 13.5772 63.2987 11.5264 64.0893 9.61034C64.9092 7.69426 66.0073 6.03266 67.3836 4.62554C68.7892 3.18848 70.429 2.06577 72.3031 1.25743C74.1772 0.419142 76.1831 3.81711e-08 78.3207 3.81711e-08H89.4336V5.56861H78.3207C76.9444 5.56861 75.6414 5.83806 74.4115 6.37695C73.2109 6.91585 72.1567 7.64935 71.249 8.57745C70.3412 9.47561 69.6238 10.5534 69.0967 11.8108C68.5989 13.0383 68.35 14.3556 68.35 15.7628C68.35 17.1699 68.5989 18.4872 69.0967 19.7147C69.6238 20.9422 70.3412 22.0199 71.249 22.948C72.1567 23.8761 73.2109 24.6097 74.4115 25.1485C75.6414 25.6575 76.9444 25.912 78.3207 25.912H83.987C85.1875 25.912 86.0807 25.5378 86.6663 24.7893C87.2813 24.0109 87.5887 23.1576 87.5887 22.2295C87.5887 21.3014 87.2813 20.4631 86.6663 19.7147C86.0807 18.9363 85.1875 18.5471 83.987 18.5471Z" fill="var(--fill-0, white)"/>
<path d="M56.3529 6.62749H61.5933V31.4806H56.3529V6.62749Z" fill="var(--fill-0, white)"/>
<path d="M43.5551 25.912H55.0428V31.4806H43.5551C42.2884 31.4806 41.0955 31.2411 39.9762 30.7621C38.8863 30.2531 37.929 29.5795 37.1042 28.7412C36.2794 27.9029 35.6167 26.9299 35.1159 25.8222C34.6446 24.6845 34.409 23.472 34.409 22.1846V3.81711e-08H39.8878V22.1846C39.8878 23.2325 40.2413 24.1157 40.9482 24.8342C41.6551 25.5527 42.5241 25.912 43.5551 25.912Z" fill="var(--fill-0, white)"/>
</g>
</g>
</svg>
